<svg id="svg8" xmlns="http://www.w3.org/2000/svg" viewBox="0 0 93.42 87.57"><defs><style>.cls-1{fill:#2d0c8a;}.cls-2{isolation:isolate;}.cls-3,.cls-4{fill:#fff;}.cls-4,.cls-5,.cls-6{stroke:#fff;}.cls-4,.cls-5{stroke-miterlimit:10;}.cls-5,.cls-6{fill:none;}.cls-6{stroke-width:2px;}</style></defs><rect class="cls-1" width="93.42" height="87.57"/><g id="text5059" class="cls-2"><g class="cls-2"><path class="cls-3" d="M41.34,15.09v2.59H19.7V30.89H39.3v2.54H19.7v15.8H16.84V15.09Z"/></g></g><g id="text5067" class="cls-2"><g class="cls-2"><path class="cls-3" d="M49.74,50.2a17.47,17.47,0,0,1,12.68-5.07A17.33,17.33,0,0,1,75,50.22a16.69,16.69,0,0,1,5.19,12.37v.14a16.53,16.53,0,0,1-5.14,12.2A17.3,17.3,0,0,1,62.42,80a17.36,17.36,0,0,1-12.73-5.1,17.32,17.32,0,0,1,.05-24.7ZM47.45,62.59a14.62,14.62,0,0,0,15,14.77A14.59,14.59,0,0,0,77.29,62.59,14.72,14.72,0,0,0,62.42,47.76a14.47,14.47,0,0,0-10.67,4.32A14.32,14.32,0,0,0,47.45,62.59Z"/></g></g><g id="text5071" class="cls-2"><g class="cls-2"><path class="cls-3" d="M36.48,65.11V31h2.85V52.48L59.91,31h3.61L48.6,46.53,64.08,65.11H60.47L46.67,48.58l-7.34,7.6v8.93Z"/></g></g><line class="cls-4" x1="62.15" y1="64.65" x2="45.4" y2="64.65"/><path class="cls-5" d="M53.87,64.65c0-2.66,1.05-4.19,3.71-5.32"/><line class="cls-6" x1="16.84" y1="8.87" x2="34.89" y2="8.87"/><polygon class="cls-3" points="31.86 12.87 33.56 8.87 31.86 4.87 41.34 8.87 31.86 12.87"/></svg>