<svg id="svg8" xmlns="http://www.w3.org/2000/svg" viewBox="0 0 59.61 59.61"><defs><style>.cls-1{fill:#2b1373;stroke:#000;stroke-width:3px;}.cls-1,.cls-3{stroke-miterlimit:10;}.cls-2{fill:#fff;}.cls-3,.cls-4{fill:none;stroke:#fff;}.cls-4{stroke-width:2px;}</style></defs><circle class="cls-1" cx="29.81" cy="29.81" r="28.31"/><g id="text5059"><path class="cls-2" d="M42.91,23.5v1.83H27.62v9.34H41.47v1.8H27.62V47.63h-2V23.5Z" transform="translate(-15.98 -14.25)"/></g><g id="text5067"><path class="cls-2" d="M48.85,48.09a12.91,12.91,0,0,1,17.86,0,11.84,11.84,0,0,1,3.67,8.75V57a11.7,11.7,0,0,1-3.64,8.62,13,13,0,0,1-17.92,0,12.22,12.22,0,0,1-.11-17.31Zm-1.62,8.76A10.33,10.33,0,0,0,57.46,67.29h.38A10.32,10.32,0,0,0,68.33,57.16v-.31A10.4,10.4,0,0,0,58,46.37h-.18A10.4,10.4,0,0,0,47.23,56.85Z" transform="translate(-15.98 -14.25)"/></g><g id="text5071"><path class="cls-2" d="M39.48,58.8V34.68h2V49.87L56,34.68h2.55l-10.54,11L59,58.8H56.44L46.68,47.11l-5.19,5.37V58.8Z" transform="translate(-15.98 -14.25)"/></g><line class="cls-3" x1="41.65" y1="44.06" x2="29.81" y2="44.06"/><path class="cls-3" d="M51.77,58.31a3.65,3.65,0,0,1,2.62-3.77" transform="translate(-15.98 -14.25)"/><line class="cls-4" x1="9.62" y1="4.85" x2="22.38" y2="4.85"/><polygon class="cls-2" points="20.23 7.68 21.44 4.86 20.23 2.03 26.94 4.86 20.23 7.68"/></svg>