<svg id="svg8" xmlns="http://www.w3.org/2000/svg" viewBox="0 0 56.62 56.62"><defs><style>.cls-1{fill:#0a1f19;}.cls-2{fill:#fff;}.cls-3,.cls-4{fill:none;stroke:#fff;}.cls-3{stroke-miterlimit:10;}.cls-4{stroke-width:2px;}</style></defs><circle class="cls-1" cx="28.31" cy="28.31" r="28.31"/><g id="text5059"><path class="cls-2" d="M26.93,9.25v1.83H11.64v9.34H25.49v1.8H11.64V33.38h-2V9.25Z" transform="translate(-1.5 -1.5)"/></g><g id="text5067"><path class="cls-2" d="M32.87,33.84a12.91,12.91,0,0,1,17.86,0,11.84,11.84,0,0,1,3.67,8.75v.16a11.7,11.7,0,0,1-3.64,8.62,13,13,0,0,1-17.92,0,12.22,12.22,0,0,1-.14-17.28l0,0ZM31.25,42.6A10.33,10.33,0,0,0,41.47,53h.39A10.32,10.32,0,0,0,52.35,42.91V42.6A10.41,10.41,0,0,0,42,32.12h-.19A10.41,10.41,0,0,0,31.25,42.33Z" transform="translate(-1.5 -1.5)"/></g><g id="text5071"><path class="cls-2" d="M23.5,44.55V20.43h2V35.62L40,20.43h2.55L32,31.43,43,44.55H40.46L30.7,32.86l-5.19,5.37v6.32Z" transform="translate(-1.5 -1.5)"/></g><line class="cls-3" x1="40.15" y1="42.56" x2="28.31" y2="42.56"/><path class="cls-3" d="M35.79,44.06a3.65,3.65,0,0,1,2.62-3.77" transform="translate(-1.5 -1.5)"/><line class="cls-4" x1="8.12" y1="3.35" x2="20.88" y2="3.35"/><polygon class="cls-2" points="18.73 6.18 19.94 3.36 18.73 0.53 25.44 3.36 18.73 6.18"/></svg>